<?xml version="1.0" encoding="UTF-8" standalone="no"?>
<!-- Created with Inkscape (http://www.inkscape.org/) -->

<svg
   xmlns:dc="http://purl.org/dc/elements/1.1/"
   xmlns:cc="http://creativecommons.org/ns#"
   xmlns:rdf="http://www.w3.org/1999/02/22-rdf-syntax-ns#"
   xmlns:svg="http://www.w3.org/2000/svg"
   xmlns="http://www.w3.org/2000/svg"
   xmlns:sodipodi="http://sodipodi.sourceforge.net/DTD/sodipodi-0.dtd"
   xmlns:inkscape="http://www.inkscape.org/namespaces/inkscape"
   version="1.1"
   width="126.11884"
   height="45.004414"
   id="svg4056"
   inkscape:version="0.48.4 r9939"
   sodipodi:docname="4pi-logo.svg">
  <sodipodi:namedview
     pagecolor="#ffffff"
     bordercolor="#666666"
     borderopacity="1"
     objecttolerance="10"
     gridtolerance="10"
     guidetolerance="10"
     inkscape:pageopacity="0"
     inkscape:pageshadow="2"
     inkscape:window-width="1011"
     inkscape:window-height="735"
     id="namedview16"
     showgrid="false"
     inkscape:zoom="4.4404829"
     inkscape:cx="83.39131"
     inkscape:cy="8.1075184"
     inkscape:window-x="1625"
     inkscape:window-y="220"
     inkscape:window-maximized="0"
     inkscape:current-layer="svg4056" />
  <title
     id="title4089">Logo 4pi.org</title>
  <defs
     id="defs4058" />
  <metadata
     id="metadata4061">
    <rdf:RDF>
      <cc:Work
         rdf:about="">
        <dc:format>image/svg+xml</dc:format>
        <dc:type
           rdf:resource="http://purl.org/dc/dcmitype/StillImage" />
        <dc:title>Logo 4pi.org</dc:title>
        <dc:date>12.06.2015</dc:date>
        <dc:creator>
          <cc:Agent>
            <dc:title>Peter Reimer</dc:title>
          </cc:Agent>
        </dc:creator>
        <dc:rights>
          <cc:Agent>
            <dc:title>Peter Reimer</dc:title>
          </cc:Agent>
        </dc:rights>
      </cc:Work>
    </rdf:RDF>
  </metadata>
  <g
     style="fill:#cc6600;fill-opacity:1;stroke-width:3.03088832;stroke-miterlimit:4;stroke-dasharray:none"
     id="g3995"
     transform="matrix(0.32993627,0,0,0.32993627,-261.38717,54.55029)">
    <path
       inkscape:connector-curvature="0"
       style="font-size:11px;font-style:normal;font-weight:400;fill:#cc6600;fill-opacity:1;stroke:#ffffff;stroke-width:3.03088832;stroke-linecap:round;stroke-linejoin:miter;stroke-miterlimit:4;stroke-opacity:1;stroke-dasharray:none;font-family:Cantarell"
       id="path3997"
       d="m 819.75415,-134.18205 0,-29.63833 -26.00337,14.81917 0,29.63831 z" />
    <path
       inkscape:connector-curvature="0"
       style="font-size:11px;font-style:normal;font-weight:400;fill:#cc6600;fill-opacity:1;stroke:#ffffff;stroke-width:3.03088832;stroke-linecap:round;stroke-linejoin:miter;stroke-miterlimit:4;stroke-opacity:1;stroke-dasharray:none;font-family:Cantarell"
       id="path3999"
       d="M 845.75748,-89.724571 871.75079,-74.9054 845.75748,-60.086243 819.75415,-74.9054 z" />
    <path
       inkscape:connector-curvature="0"
       style="font-size:11px;font-style:normal;font-weight:400;fill:#cc6600;fill-opacity:1;stroke:#ffffff;stroke-width:3.03088832;stroke-linecap:round;stroke-linejoin:miter;stroke-miterlimit:4;stroke-opacity:1;stroke-dasharray:none;font-family:Cantarell"
       id="path4001"
       d="m 819.75415,-104.54373 -26.00337,14.819159 26.00337,14.819171 26.00333,-14.819171 z" />
    <path
       inkscape:connector-curvature="0"
       style="font-size:11px;font-style:normal;font-weight:400;fill:#cc6600;fill-opacity:1;stroke:#ffffff;stroke-width:3.03088832;stroke-linecap:round;stroke-linejoin:miter;stroke-miterlimit:4;stroke-opacity:1;stroke-dasharray:none;font-family:Cantarell"
       id="path4003"
       d="m 793.75078,-89.724571 0,-29.638329 26.00337,-14.81915 0,29.63832 z" />
    <path
       inkscape:connector-curvature="0"
       style="font-size:11px;font-style:normal;font-weight:400;fill:#cc6600;fill-opacity:1;stroke:#ffffff;stroke-width:3.03088832;stroke-linecap:round;stroke-linejoin:miter;stroke-miterlimit:4;stroke-opacity:1;stroke-dasharray:none;font-family:Cantarell"
       id="path4005"
       d="m 845.75748,-89.724571 0,-29.638329 25.99331,14.81917 0,29.63833 z" />
    <path
       inkscape:connector-curvature="0"
       style="font-size:11px;font-style:normal;font-weight:400;fill:#cc6600;fill-opacity:1;stroke:#ffffff;stroke-width:3.03088832;stroke-linecap:round;stroke-linejoin:miter;stroke-miterlimit:4;stroke-opacity:1;stroke-dasharray:none;font-family:Cantarell"
       id="path4007"
       d="m 845.75748,-60.086243 0,29.638329 -26.00333,-14.819158 0,-29.638328 z" />
  </g>
  <g
     id="g3017">
    <g
       id="text4009"
       style="font-size:27.96916771px;font-style:normal;font-weight:normal;line-height:125%;letter-spacing:0px;word-spacing:0px;fill:#463a3f;fill-opacity:0.94117647;stroke:none;font-family:Sans"
       transform="scale(1.0042985,0.99571989)">
      <path
         id="path3003"
         style="font-variant:normal;font-weight:bold;font-stretch:normal;text-align:start;line-height:125%;writing-mode:lr-tb;text-anchor:start;fill:#463a3f;font-family:Nevis;-inkscape-font-specification:Nevis Bold"
         d="m 44.41656,9.4679083 0,-0.027314 4.083389,0 0,11.9087473 2.758678,0 0,4.083389 -2.758678,0 0,4.506751 -4.083389,0 0,-4.506751 -9.300295,0 0,-4.083389 0.136569,0 -0.122912,-0.136568 9.286638,-11.7448657 m 0,11.8814337 0,-6.52796 -4.984739,6.52796 4.984739,0" />
      <path
         id="path3005"
         style="font-variant:normal;font-weight:bold;font-stretch:normal;text-align:start;line-height:125%;writing-mode:lr-tb;text-anchor:start;fill:#463a3f;font-family:Nevis;-inkscape-font-specification:Nevis Bold"
         d="m 54.618205,35.675346 0,-18.996637 3.823909,-0.409704 0,1.092545 c 1.019703,-0.72835 2.021203,-1.092532 3.004501,-1.092545 2.094035,1.3e-5 3.755613,0.682854 4.984739,2.048523 1.2291,1.365692 1.843656,2.958986 1.843671,4.779887 -1.5e-5,1.820914 -0.614571,3.414208 -1.843671,4.779887 -1.229126,1.365683 -2.890704,2.048523 -4.984739,2.048523 -1.365689,-0.09105 -2.367188,-0.459779 -3.004501,-1.106203 l 0,6.869381 -3.823909,-0.01366 m 3.823909,-13.807045 0,2.212405 c 0.182086,1.529568 1.138062,2.426365 2.867933,2.690393 2.185081,-0.172983 3.414193,-1.306498 3.687341,-3.400548 -0.09106,-2.549264 -1.32017,-3.869422 -3.687341,-3.960478 -1.729871,0.273147 -2.685847,1.092555 -2.867933,2.458228" />
      <path
         id="path3007"
         style="font-variant:normal;font-weight:bold;font-stretch:normal;text-align:start;line-height:125%;writing-mode:lr-tb;text-anchor:start;fill:#463a3f;font-family:Nevis;-inkscape-font-specification:Nevis Bold"
         d="m 71.006391,29.939482 0,-13.670477 3.82391,0 0,13.670477 -3.82391,0 M 70.869823,13.005025 c -10e-7,0.546289 0.182089,1.001516 0.546273,1.365682 0.364179,0.364197 0.864929,0.546288 1.50225,0.546273 0.637314,1.5e-5 1.138064,-0.182076 1.50225,-0.546273 0.364177,-0.364166 0.546267,-0.819393 0.546273,-1.365682 -6e-6,-0.546256 -0.182096,-1.001482 -0.546273,-1.365682 -0.364186,-0.373268 -0.87404,-0.559911 -1.529564,-0.55993 -0.619112,1.9e-5 -1.110757,0.186662 -1.474936,0.55993 -0.364184,0.3642 -0.546274,0.819426 -0.546273,1.365682" />
      <path
         id="path3009"
         style="font-variant:normal;font-weight:bold;font-stretch:normal;text-align:start;line-height:125%;writing-mode:lr-tb;text-anchor:start;fill:#463a3f;font-family:Nevis;-inkscape-font-specification:Nevis Bold"
         d="m 78.039653,28.027527 c -10e-7,0.546274 0.18209,1.001501 0.546273,1.365682 0.36418,0.364182 0.864929,0.546273 1.50225,0.546273 0.637315,0 1.138064,-0.182091 1.502251,-0.546273 0.364176,-0.364181 0.546267,-0.819408 0.546272,-1.365682 -5e-6,-0.54627 -0.182096,-1.001497 -0.546272,-1.365682 -0.364187,-0.373283 -0.874041,-0.559926 -1.529564,-0.55993 -0.619112,4e-6 -1.110757,0.186647 -1.474937,0.55993 -0.364183,0.364185 -0.546274,0.819412 -0.546273,1.365682" />
      <path
         id="path3011"
         style="font-variant:normal;font-weight:bold;font-stretch:normal;text-align:start;line-height:125%;writing-mode:lr-tb;text-anchor:start;fill:#463a3f;font-family:Nevis;-inkscape-font-specification:Nevis Bold"
         d="m 92.256399,30.07605 c -1.984797,0 -3.641822,-0.664631 -4.971082,-1.993896 -1.329265,-1.338365 -1.993897,-2.995391 -1.993896,-4.971082 -10e-7,-1.984783 0.664631,-3.641809 1.993896,-4.971083 1.32926,-1.329251 2.986285,-1.993882 4.971082,-1.993896 1.984782,1.4e-5 3.641808,0.664645 4.971083,1.993896 1.32925,1.329274 1.993881,2.9863 1.993895,4.971083 -1.4e-5,1.984796 -0.664645,3.641822 -1.993895,4.971082 -1.329275,1.329265 -2.986301,1.993896 -4.971083,1.993896 m -0.01366,-3.304951 c 1.03791,4e-6 1.88008,-0.345969 2.526512,-1.037918 0.646412,-0.701045 0.969623,-1.570528 0.969634,-2.608453 -1.1e-5,-1.03791 -0.323222,-1.907393 -0.969634,-2.608452 -0.646432,-0.70104 -1.493154,-1.051565 -2.540168,-1.051575 -1.028821,10e-6 -1.866438,0.350535 -2.512855,1.051575 -0.646428,0.701059 -0.969639,1.570542 -0.969635,2.608452 -4e-6,1.037925 0.323207,1.907408 0.969635,2.608453 0.646417,0.691949 1.488587,1.037922 2.526511,1.037918" />
      <path
         id="path3013"
         style="font-variant:normal;font-weight:bold;font-stretch:normal;text-align:start;line-height:125%;writing-mode:lr-tb;text-anchor:start;fill:#463a3f;font-family:Nevis;-inkscape-font-specification:Nevis Bold"
         d="m 105.33963,17.784912 c 0.97419,-1.001487 2.16233,-1.502237 3.56443,-1.50225 0.44612,1.3e-5 0.86948,0.03643 1.27009,0.109254 l -0.6009,3.769282 c -0.44613,-0.400589 -1.08345,-0.614546 -1.91196,-0.64187 -0.92867,0.06374 -1.70255,0.737478 -2.32166,2.021209 l 0,8.398945 -3.82391,0 0,-13.260773 3.82391,-0.409704 0,1.515907" />
      <path
         id="path3015"
         style="font-variant:normal;font-weight:bold;font-stretch:normal;text-align:start;line-height:125%;writing-mode:lr-tb;text-anchor:start;fill:#463a3f;font-family:Nevis;-inkscape-font-specification:Nevis Bold"
         d="m 125.57904,16.692366 0,12.15457 c -1e-5,1.911954 -0.56905,3.5098 -1.7071,4.793544 -1.13808,1.283736 -2.57205,1.962024 -4.3019,2.034866 l -0.81941,0.08194 c -2.64032,-0.05463 -4.68884,-0.81031 -6.14557,-2.267032 l 1.77539,-2.048523 c 1.00149,0.728361 2.21695,1.138066 3.64637,1.229114 1.45672,-3e-6 2.44001,-0.341423 2.94987,-1.024262 0.51895,-0.682842 0.77843,-1.433966 0.77844,-2.253375 l 0,-0.682841 c -1.01972,0.81941 -2.20331,1.229114 -3.55077,1.229114 -2.09405,0 -3.66459,-0.614557 -4.71161,-1.843671 -1.04702,-1.229111 -1.57053,-2.890689 -1.57053,-4.984739 0,-2.002992 0.56903,-3.641809 1.7071,-4.916456 1.13807,-1.274623 2.75412,-1.911941 4.84817,-1.911954 1.54777,0.09106 2.64031,0.505315 3.27764,1.24277 l 0,-1.24277 3.82391,0.409704 m -3.82391,7.647819 0,-2.212404 c -0.1821,-1.529555 -1.13808,-2.426352 -2.86793,-2.690394 -2.27614,0.08195 -3.50526,1.215466 -3.68734,3.400548 0.091,2.549278 1.32015,3.869436 3.68734,3.960478 1.72985,-0.273133 2.68583,-1.092541 2.86793,-2.458228" />
    </g>
  </g>
</svg>
