<?xml version="1.0" encoding="UTF-8" standalone="no"?>
<!-- Created with Inkscape (http://www.inkscape.org/) -->

<svg
   xmlns:dc="http://purl.org/dc/elements/1.1/"
   xmlns:cc="http://creativecommons.org/ns#"
   xmlns:rdf="http://www.w3.org/1999/02/22-rdf-syntax-ns#"
   xmlns:svg="http://www.w3.org/2000/svg"
   xmlns="http://www.w3.org/2000/svg"
   xmlns:sodipodi="http://sodipodi.sourceforge.net/DTD/sodipodi-0.dtd"
   xmlns:inkscape="http://www.inkscape.org/namespaces/inkscape"
   width="134.32684"
   height="50"
   id="svg3124"
   version="1.1"
   inkscape:version="0.91 r13725"
   sodipodi:docname="logo-bw.svg">
  <title
     id="title3157">Logo 4pi.org</title>
  <defs
     id="defs3126" />
  <sodipodi:namedview
     id="base"
     pagecolor="#ffffff"
     bordercolor="#666666"
     borderopacity="1.0"
     inkscape:pageopacity="0.0"
     inkscape:pageshadow="2"
     inkscape:zoom="6.0451834"
     inkscape:cx="60.560999"
     inkscape:cy="-3.9955722"
     inkscape:document-units="px"
     inkscape:current-layer="layer1"
     showgrid="false"
     fit-margin-top="0"
     fit-margin-left="0"
     fit-margin-right="0"
     fit-margin-bottom="0"
     inkscape:window-width="1920"
     inkscape:window-height="1002"
     inkscape:window-x="0"
     inkscape:window-y="34"
     inkscape:window-maximized="1"
     showguides="true"
     inkscape:guide-bbox="true">
    <sodipodi:guide
       position="65.379766,16.727846"
       orientation="0,1"
       id="guide3345" />
    <sodipodi:guide
       position="54.131142,38.067149"
       orientation="0,1"
       id="guide3352" />
  </sodipodi:namedview>
  <metadata
     id="metadata3129">
    <rdf:RDF>
      <cc:Work
         rdf:about="">
        <dc:format>image/svg+xml</dc:format>
        <dc:type
           rdf:resource="http://purl.org/dc/dcmitype/StillImage" />
        <dc:title>Logo 4pi.org</dc:title>
        <dc:creator>
          <cc:Agent>
            <dc:title>Peter Reimer</dc:title>
          </cc:Agent>
        </dc:creator>
        <dc:rights>
          <cc:Agent>
            <dc:title>Peter Reimer</dc:title>
          </cc:Agent>
        </dc:rights>
      </cc:Work>
    </rdf:RDF>
  </metadata>
  <g
     inkscape:label="Ebene 1"
     inkscape:groupmode="layer"
     id="layer1"
     transform="translate(-137.94449,-731.68915)">
    <g
       id="g3149"
       transform="matrix(0.07055133,0,0,0.07055133,130.55813,722.75864)">
      <path
         sodipodi:nodetypes="ccccc"
         inkscape:connector-curvature="0"
         d="m 247.77293,288.8823 0,-153.641 -133.07693,76.8205 0,153.641 z"
         style="font-style:normal;font-weight:400;font-size:11px;font-family:Cantarell;fill:#000000;fill-opacity:0.6745098;stroke:#ffffff;stroke-width:10;stroke-linecap:round;stroke-linejoin:miter;stroke-miterlimit:4;stroke-opacity:1"
         id="polyline46-4-3" />
      <path
         sodipodi:nodetypes="ccccc"
         inkscape:connector-curvature="0"
         d="M 380.84984,519.3438 513.87542,596.1643 380.84984,672.9848 247.77292,596.1643 Z"
         style="font-style:normal;font-weight:400;font-size:11px;font-family:Cantarell;fill:#000000;fill-opacity:0.25496689;stroke:#ffffff;stroke-width:10;stroke-linecap:round;stroke-linejoin:miter;stroke-miterlimit:4;stroke-opacity:1"
         id="polyline50-0-4" />
      <path
         sodipodi:nodetypes="ccccc"
         inkscape:connector-curvature="0"
         d="M 247.77293,442.5233 114.696,519.3438 247.77293,596.1643 380.84984,519.3438 Z"
         style="font-style:normal;font-weight:400;font-size:11px;font-family:Cantarell;fill:#000000;fill-opacity:0.25496689;stroke:#ffffff;stroke-width:10;stroke-linecap:round;stroke-linejoin:miter;stroke-miterlimit:4;stroke-opacity:1"
         id="polyline48-4-3" />
      <path
         sodipodi:nodetypes="ccccc"
         inkscape:connector-curvature="0"
         d="m 114.696,519.3438 0,-153.641 133.07693,-76.8205 0,153.641 z"
         style="font-style:normal;font-weight:400;font-size:11px;font-family:Cantarell;fill:#000000;fill-opacity:0.6745098;stroke:#ffffff;stroke-width:10;stroke-linecap:round;stroke-linejoin:miter;stroke-miterlimit:4;stroke-opacity:1"
         id="polyline32-72-5" />
      <path
         sodipodi:nodetypes="ccccc"
         inkscape:connector-curvature="0"
         d="m 380.84984,519.3438 0,-153.641 133.02558,76.8205 0,153.641 z"
         style="font-style:normal;font-weight:400;font-size:11px;font-family:Cantarell;fill:#000000;fill-opacity:1;stroke:#ffffff;stroke-width:10;stroke-linecap:round;stroke-linejoin:miter;stroke-miterlimit:4;stroke-opacity:1"
         id="polyline52-2-1" />
      <path
         sodipodi:nodetypes="ccccc"
         inkscape:connector-curvature="0"
         d="m 380.84984,672.9848 0,153.64112 -133.07692,-76.82062 0,-153.641 z"
         style="font-style:normal;font-weight:400;font-size:11px;font-family:Cantarell;fill:#000000;fill-opacity:1;stroke:#ffffff;stroke-width:10;stroke-linecap:round;stroke-linejoin:miter;stroke-miterlimit:4;stroke-opacity:1"
         id="polyline54-2-0" />
    </g>
    <g
       style="font-style:normal;font-variant:normal;font-weight:normal;font-stretch:normal;font-size:29.29722023px;line-height:125%;font-family:'Arial Black';-inkscape-font-specification:'Arial Black, Normal';text-align:start;letter-spacing:0px;word-spacing:0px;writing-mode:lr-tb;text-anchor:start;fill:#000000;fill-opacity:1;stroke:none;stroke-width:1px;stroke-linecap:butt;stroke-linejoin:miter;stroke-opacity:1"
       id="text3341">
      <path
         d="m 187.25503,743.58409 0,-0.0286 4.27728,0 0,12.47421 2.88967,0 0,4.27728 -2.88967,0 0,4.72074 -4.27728,0 0,-4.72074 -9.74189,0 0,-4.27728 0.14305,0 -0.12875,-0.14306 9.72759,-12.30254 z m 0,12.4456 0,-6.83793 -5.22142,6.83793 5.22142,0 z"
         style="font-style:normal;font-variant:normal;font-weight:bold;font-stretch:normal;font-size:29.29722023px;line-height:125%;font-family:Nevis;-inkscape-font-specification:'Nevis, Bold';text-align:start;writing-mode:lr-tb;text-anchor:start"
         id="path3346"
         inkscape:connector-curvature="0" />
      <path
         d="m 197.94108,771.03593 0,-19.89865 4.00548,-0.42916 0,1.14442 q 1.60219,-1.14442 3.14716,-1.14442 3.29022,0 5.22143,2.14579 1.93121,2.1458 1.93121,5.00685 0,2.86106 -1.93121,5.00685 -1.93121,2.14579 -5.22143,2.14579 -2.14579,-0.14305 -3.14716,-1.15872 l 0,7.19555 -4.00548,-0.0143 z m 4.00548,-14.46264 0,2.31745 q 0.28611,2.40329 3.00411,2.81814 3.43327,-0.2718 3.86243,-3.56201 -0.14306,-4.00548 -3.86243,-4.14853 -2.718,0.42916 -3.00411,2.57495 z"
         style="font-style:normal;font-variant:normal;font-weight:bold;font-stretch:normal;font-size:29.29722023px;line-height:125%;font-family:Nevis;-inkscape-font-specification:'Nevis, Bold';text-align:start;writing-mode:lr-tb;text-anchor:start"
         id="path3348"
         inkscape:connector-curvature="0" />
      <path
         d="m 215.10742,765.02771 0,-14.31959 4.00548,0 0,14.31959 -4.00548,0 z m -0.14305,-17.73855 q 0,0.85832 0.57221,1.43053 0.57221,0.57221 1.57358,0.57221 1.00137,0 1.57358,-0.57221 0.57222,-0.57221 0.57222,-1.43053 0,-0.85832 -0.57222,-1.43053 -0.57221,-0.58652 -1.60219,-0.58652 -0.97276,0 -1.54497,0.58652 -0.57221,0.57221 -0.57221,1.43053 z"
         style="font-style:normal;font-variant:normal;font-weight:bold;font-stretch:normal;font-size:29.29722023px;line-height:125%;font-family:Nevis;-inkscape-font-specification:'Nevis, Bold';text-align:start;writing-mode:lr-tb;text-anchor:start"
         id="path3350"
         inkscape:connector-curvature="0" />
      <path
         d="m 222.47464,763.02497 q 0,0.85832 0.57222,1.43053 0.57221,0.57221 1.57358,0.57221 1.00137,0 1.57358,-0.57221 0.57221,-0.57221 0.57221,-1.43053 0,-0.85832 -0.57221,-1.43053 -0.57221,-0.58651 -1.60219,-0.58651 -0.97276,0 -1.54497,0.58651 -0.57222,0.57221 -0.57222,1.43053 z"
         style="font-style:normal;font-variant:normal;font-weight:bold;font-stretch:normal;font-size:29.29722023px;line-height:125%;font-family:Nevis;-inkscape-font-specification:'Nevis, Bold';text-align:start;writing-mode:lr-tb;text-anchor:start"
         id="path3352"
         inkscape:connector-curvature="0" />
      <path
         d="m 237.36644,765.17076 q -3.11855,0 -5.20712,-2.08857 -2.08857,-2.10288 -2.08857,-5.20712 0,-3.11855 2.08857,-5.20712 2.08857,-2.08858 5.20712,-2.08858 3.11855,0 5.20712,2.08858 2.08858,2.08857 2.08858,5.20712 0,3.11855 -2.08858,5.20712 -2.08857,2.08857 -5.20712,2.08857 z m -0.0143,-3.46188 q 1.6308,0 2.64647,-1.0872 1.01568,-1.1015 1.01568,-2.73231 0,-1.6308 -1.01568,-2.73231 -1.01567,-1.1015 -2.66078,-1.1015 -1.6165,0 -2.63217,1.1015 -1.01568,1.10151 -1.01568,2.73231 0,1.63081 1.01568,2.73231 1.01567,1.0872 2.64648,1.0872 z"
         style="font-style:normal;font-variant:normal;font-weight:bold;font-stretch:normal;font-size:29.29722023px;line-height:125%;font-family:Nevis;-inkscape-font-specification:'Nevis, Bold';text-align:start;writing-mode:lr-tb;text-anchor:start"
         id="path3354"
         inkscape:connector-curvature="0" />
      <path
         d="m 251.07091,752.29601 q 1.53066,-1.57358 3.73368,-1.57358 0.70095,0 1.33039,0.11444 l -0.62944,3.94826 q -0.70095,-0.62944 -2.00273,-0.67235 -1.45914,0.10014 -2.4319,2.11718 l 0,8.79775 -4.00548,0 0,-13.89043 4.00548,-0.42916 0,1.58789 z"
         style="font-style:normal;font-variant:normal;font-weight:bold;font-stretch:normal;font-size:29.29722023px;line-height:125%;font-family:Nevis;-inkscape-font-specification:'Nevis, Bold';text-align:start;writing-mode:lr-tb;text-anchor:start"
         id="path3356"
         inkscape:connector-curvature="0" />
      <path
         d="m 272.27133,751.15159 0,12.7317 q 0,3.00411 -1.78816,5.02115 -1.78816,2.01705 -4.50616,2.13149 l -0.85832,0.0858 q -4.14853,-0.0858 -6.43738,-2.37468 l 1.85969,-2.14579 q 1.57358,1.14442 3.81951,1.28748 2.28885,0 3.08994,-1.0729 0.8154,-1.0729 0.8154,-2.36037 l 0,-0.71527 q -1.60219,1.28748 -3.71937,1.28748 -3.29022,0 -4.93532,-1.93121 -1.64511,-1.93122 -1.64511,-5.22143 0,-3.14716 1.78816,-5.1499 1.78816,-2.00274 5.07837,-2.00274 2.4319,0.14305 3.43327,1.30178 l 0,-1.30178 4.00548,0.42916 z m -4.00548,8.01095 0,-2.31745 q -0.2861,-2.40329 -3.00411,-2.81814 -3.57632,0.12874 -3.86242,3.56201 0.14305,4.00548 3.86242,4.14853 2.71801,-0.42915 3.00411,-2.57495 z"
         style="font-style:normal;font-variant:normal;font-weight:bold;font-stretch:normal;font-size:29.29722023px;line-height:125%;font-family:Nevis;-inkscape-font-specification:'Nevis, Bold';text-align:start;writing-mode:lr-tb;text-anchor:start"
         id="path3358"
         inkscape:connector-curvature="0" />
    </g>
  </g>
</svg>
