<?xml version="1.0" encoding="UTF-8" standalone="no"?>
<svg
   xmlns:dc="http://purl.org/dc/elements/1.1/"
   xmlns:cc="http://creativecommons.org/ns#"
   xmlns:rdf="http://www.w3.org/1999/02/22-rdf-syntax-ns#"
   xmlns:svg="http://www.w3.org/2000/svg"
   xmlns="http://www.w3.org/2000/svg"
   xmlns:sodipodi="http://sodipodi.sourceforge.net/DTD/sodipodi-0.dtd"
   xmlns:inkscape="http://www.inkscape.org/namespaces/inkscape"
   version="1.1"
   id="Capa_1"
   x="0px"
   y="0px"
   width="160"
   height="32"
   viewBox="0 0 160 32"
   xml:space="preserve"
   inkscape:version="0.91 r13725"
   sodipodi:docname="social-sprite.svg"><sodipodi:namedview
     pagecolor="#ffffff"
     bordercolor="#666666"
     borderopacity="1"
     objecttolerance="10"
     gridtolerance="10"
     guidetolerance="10"
     inkscape:pageopacity="0"
     inkscape:pageshadow="2"
     inkscape:window-width="1559"
     inkscape:window-height="904"
     id="namedview35"
     showgrid="false"
     fit-margin-top="0"
     fit-margin-left="0"
     fit-margin-right="0"
     fit-margin-bottom="0"
     inkscape:zoom="4.0000001"
     inkscape:cx="121.76143"
     inkscape:cy="19.941981"
     inkscape:window-x="0"
     inkscape:window-y="27"
     inkscape:window-maximized="0"
     inkscape:current-layer="Capa_1"
     showguides="true"
     inkscape:guide-bbox="true"><sodipodi:guide
       position="128,34.249999"
       orientation="1,0"
       id="guide3362" /></sodipodi:namedview><metadata
     id="metadata41"><rdf:RDF><cc:Work
         rdf:about=""><dc:format>image/svg+xml</dc:format><dc:type
           rdf:resource="http://purl.org/dc/dcmitype/StillImage" /><dc:title /><dc:rights><cc:Agent><dc:title>designed by freepik</dc:title></cc:Agent></dc:rights></cc:Work></rdf:RDF></metadata><defs
     id="defs39" /><g
     style="fill:#00a19a;fill-opacity:1"
     id="flickr"
     transform="matrix(0.32736573,0,0,0.32736573,64,0)"><title
       id="title3360">Flickr</title><path
       style="fill:#00a19a;fill-opacity:1"
       d="M 48.875,0 C 21.883,0 0,21.882 0,48.875 0,75.868 21.883,97.75 48.875,97.75 75.867,97.75 97.75,75.868 97.75,48.875 97.75,21.882 75.867,0 48.875,0 Z M 28.277,66.361 c -8.895,0 -16.105,-7.828 -16.105,-17.486 0,-9.658 7.211,-17.487 16.105,-17.487 8.894,0 16.106,7.829 16.106,17.487 0,9.658 -7.211,17.486 -16.106,17.486 z m 40.731,-0.416 c -9.152,0 -16.57,-7.735 -16.57,-17.279 0,-9.542 7.418,-17.278 16.57,-17.278 9.15,0 16.57,7.736 16.57,17.278 0,9.544 -7.42,17.279 -16.57,17.279 z"
       id="path5"
       inkscape:connector-curvature="0" /></g><g
     id="g7"
     transform="matrix(0.32,0,0,0.32,69.188406,34.49921)" /><g
     id="g9"
     transform="matrix(0.32,0,0,0.32,69.188406,34.49921)" /><g
     id="g11"
     transform="matrix(0.32,0,0,0.32,69.188406,34.49921)" /><g
     id="g13"
     transform="matrix(0.32,0,0,0.32,69.188406,34.49921)" /><g
     id="g15"
     transform="matrix(0.32,0,0,0.32,69.188406,34.49921)" /><g
     id="g17"
     transform="matrix(0.32,0,0,0.32,69.188406,34.49921)" /><g
     id="g19"
     transform="matrix(0.32,0,0,0.32,69.188406,34.49921)" /><g
     id="g21"
     transform="matrix(0.32,0,0,0.32,69.188406,34.49921)" /><g
     id="g23"
     transform="matrix(0.32,0,0,0.32,69.188406,34.49921)" /><g
     id="g25"
     transform="matrix(0.32,0,0,0.32,69.188406,34.49921)" /><g
     id="g27"
     transform="matrix(0.32,0,0,0.32,69.188406,34.49921)" /><g
     id="g29"
     transform="matrix(0.32,0,0,0.32,69.188406,34.49921)" /><g
     id="g31"
     transform="matrix(0.32,0,0,0.32,69.188406,34.49921)" /><g
     id="g33"
     transform="matrix(0.32,0,0,0.32,69.188406,34.49921)" /><g
     id="g35"
     transform="matrix(0.32,0,0,0.32,69.188406,34.49921)" /><g
     transform="matrix(0.90604304,0,0,0.90604304,1.0720916e-4,-0.396462)"
     id="github"
     style="fill:#00a19a;fill-opacity:1"><title
       id="title3356">Github</title><path
       style="fill:#00a19a;fill-opacity:1"
       d="m 23.71,34.689 c -0.172,0.062 -0.345,0.137 -0.522,0.168 -0.678,0.121 -1.112,-0.229 -1.116,-0.922 -0.009,-1.287 -0.009,-2.572 0.012,-3.859 0.022,-1.48 -0.012,-2.941 -1.139,-4.162 0.67,-0.12 1.266,-0.204 1.849,-0.338 3.862,-0.887 5.868,-3.323 6.124,-7.366 0.131,-2.058 -0.236,-3.946 -1.604,-5.567 C 27.215,12.529 27.21,12.27 27.257,12.104 27.621,10.764 27.515,9.455 27.091,8.145 26.986,7.818 26.812,7.717 26.489,7.738 25.355,7.801 24.316,8.199 23.4,8.811 22.517,9.404 21.695,9.533 20.646,9.293 18.336,8.772 16.011,8.924 13.706,9.458 13.445,9.52 13.094,9.437 12.855,9.297 11.773,8.663 10.691,8.047 9.443,7.801 8.478,7.613 8.394,7.661 8.138,8.594 7.816,9.77 7.784,10.947 8.113,12.13 c 0.047,0.172 -0.002,0.448 -0.117,0.575 -2.557,2.853 -1.631,8.244 0.092,10.309 1.34,1.604 3.12,2.326 5.096,2.701 0.345,0.064 0.688,0.113 1.033,0.173 -0.296,0.77 -0.562,1.497 -0.863,2.212 -0.059,0.138 -0.246,0.254 -0.399,0.312 -1.938,0.752 -3.604,0.199 -4.713,-1.56 C 7.649,25.914 6.888,25.213 5.754,25.01 5.718,25.003 5.681,24.984 5.648,24.989 c -0.305,0.08 -0.607,0.164 -0.911,0.246 0.171,0.238 0.292,0.558 0.521,0.701 0.961,0.608 1.586,1.475 1.999,2.498 0.649,1.604 1.909,2.319 3.546,2.459 0.799,0.065 1.606,0.01 2.481,0.01 0,0.996 0.036,2.133 -0.015,3.265 -0.026,0.61 -0.639,0.854 -1.373,0.604 C 9.949,34.106 8.144,33.151 6.585,31.809 0.956,26.96 -1.214,20.83 0.657,13.655 2.522,6.503 7.383,2.116 14.651,0.739 24.708,-1.163 34.235,6.161 35.233,16.37 36.021,24.418 31.284,31.949 23.71,34.689 Z M 14.229,25.85 c -0.006,0.014 -0.01,0.024 -0.016,0.038 0.018,0.003 0.036,0.006 0.055,0.009 0.014,0.001 0.026,0.026 -0.039,-0.047 z m -4.55,3.181 c 0.157,0.097 0.307,0.22 0.477,0.273 0.062,0.02 0.177,-0.121 0.38,-0.271 C 10.254,28.926 10.088,28.832 9.913,28.808 9.845,28.8 9.757,28.953 9.679,29.031 Z m 1.433,0.246 c 0.023,0.105 0.232,0.236 0.355,0.234 0.119,-0.002 0.235,-0.16 0.354,-0.25 -0.108,-0.099 -0.216,-0.195 -0.548,-0.494 -0.072,0.208 -0.191,0.376 -0.161,0.51 z m 1.758,-0.423 c -0.148,0.035 -0.273,0.172 -0.408,0.266 0.079,0.1 0.158,0.193 0.285,0.35 0.175,-0.16 0.294,-0.271 0.414,-0.379 -0.1,-0.087 -0.217,-0.255 -0.291,-0.237 z M 8.512,28.261 c 0.082,0.155 0.209,0.289 0.381,0.508 0.115,-0.188 0.24,-0.332 0.218,-0.361 -0.109,-0.143 -0.257,-0.26 -0.403,-0.367 -0.01,-0.008 -0.213,0.186 -0.196,0.22 z"
       id="path5-0"
       inkscape:connector-curvature="0" /></g><g
     style="fill:#00a19a;fill-opacity:1"
     id="feed"
     transform="matrix(2,0,0,2,128,0)"><title
       id="title3362">Feed</title><path
       style="fill:#00a19a;fill-opacity:1"
       d="M 8,0 C 3.582,0 0,3.582 0,8 c 0,4.418 3.582,8 8,8 4.418,0 8,-3.582 8,-8 C 16,3.581 12.418,0 8,0 Z M 4.315,12.977 c -0.719,0 -1.303,-0.58 -1.303,-1.299 0,-0.714 0.584,-1.301 1.303,-1.301 0.721,0 1.304,0.587 1.305,1.301 0,0.718 -0.583,1.299 -1.305,1.299 z m 3.274,0.011 C 7.589,11.76 7.112,10.607 6.248,9.745 5.384,8.879 4.235,8.401 3.014,8.401 l 0,-1.876 c 3.561,0 6.46,2.899 6.46,6.463 l -1.885,0 z m 3.329,-0.002 c 0,-4.361 -3.545,-7.91 -7.902,-7.91 l 0,-1.876 c 5.394,0 9.784,4.392 9.784,9.786 l -1.882,0 z"
       id="path5-8"
       inkscape:connector-curvature="0" /></g><g
     style="fill:#00a19a;fill-opacity:1"
     id="twitter"
     transform="matrix(0.0625,0,0,0.0625,31.999998,0)"><title
       id="title3358">Twitter</title><path
       style="fill:#00a19a;fill-opacity:1"
       d="M 256,0 C 114.615,0 0,114.615 0,256 0,397.385 114.615,512 256,512 397.385,512 512,397.385 512,256 512,114.615 397.385,0 256,0 Z m 147.121,180.544 c 0.146,3.254 0.221,6.528 0.221,9.819 0,100.311 -76.354,215.982 -215.979,215.982 -42.868,0 -82.768,-12.568 -116.363,-34.106 5.938,0.702 11.981,1.062 18.108,1.062 35.565,0 68.295,-12.138 94.275,-32.496 -33.217,-0.611 -61.25,-22.562 -70.912,-52.717 4.637,0.885 9.392,1.361 14.283,1.361 6.923,0 13.629,-0.928 19.999,-2.662 -34.726,-6.977 -60.893,-37.656 -60.893,-74.434 0,-0.32 0,-0.639 0.008,-0.955 10.235,5.685 21.939,9.1 34.382,9.494 -20.37,-13.611 -33.77,-36.846 -33.77,-63.184 0,-13.911 3.744,-26.952 10.278,-38.162 37.439,45.927 93.374,76.146 156.462,79.314 -1.294,-5.559 -1.965,-11.351 -1.965,-17.302 0,-41.92 33.99,-75.906 75.909,-75.906 21.832,0 41.562,9.218 55.408,23.97 17.291,-3.404 33.537,-9.721 48.207,-18.42 -5.668,17.727 -17.705,32.603 -33.377,41.997 15.355,-1.834 29.984,-5.916 43.598,-11.952 -10.176,15.224 -23.045,28.593 -37.879,39.297 z"
       id="path5-5"
       inkscape:connector-curvature="0" /></g><g
     id="360cities"
     transform="matrix(0.32,0,0,0.32,-32,0)"
     style="fill:#00a19a;fill-opacity:1"><title
       id="title3395">360cities</title><path
       id="path3383"
       style="font-style:normal;font-variant:normal;font-weight:bold;font-stretch:normal;font-size:medium;line-height:125%;font-family:Nevis;-inkscape-font-specification:'Nevis Bold';letter-spacing:0px;word-spacing:0px;fill:#00a19a;fill-opacity:1;stroke:none;stroke-width:1px;stroke-linecap:butt;stroke-linejoin:miter;stroke-opacity:1"
       d="m 478.81007,65.522667 q -5.17422,0 -8.27876,-4.449832 -3.10453,-4.470528 -3.10453,-11.072837 0,-6.623005 3.10453,-11.072837 3.10454,-4.449831 8.27876,-4.449831 5.19492,0 8.27876,4.449831 3.10453,4.449832 3.10453,11.072837 0,6.623006 -3.10453,11.072837 -3.08384,4.449832 -8.27876,4.449832 z m 0.0207,-5.79513 q 2.04899,0 3.60126,-2.79408 1.55226,-2.79408 1.55226,-6.933459 0,-4.139378 -1.55226,-6.933458 -1.55227,-2.794081 -3.64266,-2.794081 -2.04899,0 -3.60125,2.794081 -1.55227,2.79408 -1.55227,6.933458 0,4.139379 1.55227,6.933459 1.55226,2.79408 3.64265,2.79408 z m -40.00709,-9.292904 q 0,-7.471578 3.20802,-11.65235 3.20801,-4.201469 8.58921,-4.284256 5.38119,0.124181 8.69269,3.083836 l -3.10453,4.139379 q -2.27666,-1.241814 -5.31911,-1.241814 -2.69059,0 -4.28425,1.759236 -1.59366,1.759236 -1.77993,5.277707 3.14592,-2.690596 6.20906,-2.690596 5.38119,0 7.96831,2.794081 2.58711,2.79408 2.58711,7.554365 0,4.346347 -2.89757,7.347397 -2.89756,3.001049 -8.27875,3.001049 -6.20907,-0.206969 -8.89967,-4.201469 -2.69059,-3.9945 -2.69059,-10.886565 z m 6.82997,4.760285 q 0.20697,4.32565 4.96726,4.511922 4.76028,-0.186272 4.96725,-4.118681 -0.20697,-5.174223 -5.17422,-5.174223 -4.34635,0.206969 -4.76029,4.780982 z m -16.47473,-5.401889 q 0.55882,0.206969 1.01415,0.413938 3.20802,1.448783 3.20802,6.209068 0,3.72544 -3.43568,6.416036 -3.41499,2.690596 -7.96831,2.690596 -4.32565,0 -7.22321,-1.241814 -2.89757,-1.241813 -4.96726,-3.311502 l 4.13938,-4.139378 q 2.06969,2.483626 7.03695,2.897564 4.13937,0 5.15352,-1.759235 1.03485,-1.759236 0,-3.518472 -1.01415,-1.759236 -7.20252,-1.966205 l 0,-5.58816 q 6.18837,0.413937 7.20252,-1.345298 1.03485,-1.759236 0,-3.518472 -1.01415,-1.759236 -5.15352,-1.759236 -3.93241,0 -6.0021,2.483627 l -4.13938,-4.139378 q 2.06969,-2.069689 4.44983,-3.104534 2.38014,-1.034844 6.70579,-1.034844 4.55332,0 7.55437,2.690596 3.02174,2.690596 3.02174,6.416036 0,4.346347 -2.79408,5.898614 -0.26906,0.144878 -0.60021,0.310453 z M 450,3.9567567e-8 C 422.3875,3.9567567e-8 400,22.3875 400,50 c 0,27.6125 22.3875,50 50,50 27.6125,0 50,-22.3875 50,-50 C 500,22.38125 477.6125,3.9567567e-8 450,3.9567567e-8 Z"
       inkscape:connector-curvature="0" /></g></svg>