<?xml version="1.0" encoding="iso-8859-1"?>
<!-- Generator: Adobe Illustrator 18.1.1, SVG Export Plug-In . SVG Version: 6.00 Build 0)  -->
<svg version="1.1" id="Capa_1" xmlns="http://www.w3.org/2000/svg" xmlns:xlink="http://www.w3.org/1999/xlink" x="0px" y="0px"
	 viewBox="0 0 16 16" style="enable-background:new 0 0 16 16;" xml:space="preserve">
<g>
	<path style="fill:#010002;" d="M8,0C3.582,0,0,3.582,0,8s3.582,8,8,8s8-3.582,8-8C16,3.581,12.418,0,8,0z M4.315,12.977
		c-0.719,0-1.303-0.58-1.303-1.299c0-0.714,0.584-1.301,1.303-1.301c0.721,0,1.304,0.587,1.305,1.301
		C5.62,12.396,5.037,12.977,4.315,12.977z M7.589,12.988c0-1.228-0.477-2.381-1.341-3.243C5.384,8.879,4.235,8.401,3.014,8.401
		V6.525c3.561,0,6.46,2.899,6.46,6.463H7.589z M10.918,12.986c0-4.361-3.545-7.91-7.902-7.91V3.2c5.394,0,9.784,4.392,9.784,9.786
		H10.918z"/>
</g>
<g>
</g>
<g>
</g>
<g>
</g>
<g>
</g>
<g>
</g>
<g>
</g>
<g>
</g>
<g>
</g>
<g>
</g>
<g>
</g>
<g>
</g>
<g>
</g>
<g>
</g>
<g>
</g>
<g>
</g>
</svg>
